<svg xmlns="http://www.w3.org/2000/svg"><symbol id="book" viewBox="0 0 16 16"><path d="M14 2v13H3.5a1.5 1.5 0 1 1 0-3H13V0H3C1.9 0 1 .9 1 2v12c0 1.1.9 2 2 2h12V2h-1z"/><path d="M3.501 13H3.5a.5.5 0 0 0 0 1h9.499v-1H3.501z"/></symbol><symbol id="calculator" viewBox="0 0 20 20"><path d="M2 2c0-1.1.9-2 2-2h12a2 2 0 0 1 2 2v16a2 2 0 0 1-2 2H4a2 2 0 0 1-2-2V2zm3 1v2h10V3H5zm0 4v2h2V7H5zm4 0v2h2V7H9zm4 0v2h2V7h-2zm-8 4v2h2v-2H5zm4 0v2h2v-2H9zm4 0v6h2v-6h-2zm-8 4v2h2v-2H5zm4 0v2h2v-2H9z"/></symbol><symbol id="display" viewBox="0 0 32 32"><path d="M27 4.996L5 5c-.553 0-1 .443-1 .996v14a1 1 0 0 0 1 1h22a1 1 0 0 0 1-1v-14a1 1 0 0 0-1-1zM27 20H5V5.996h22V20zm2-19H3a3 3 0 0 0-3 3v20a2.997 2.997 0 0 0 2.99 2.998H13v1.217l-6.242.811A.999.999 0 0 0 7 30.996h18a1 1 0 0 0 .242-1.971L19 28.215v-1.217h10.01A2.997 2.997 0 0 0 32 24V4a3 3 0 0 0-3-3zm1 23c0 .551-.449 1-1 1H3c-.552 0-1-.449-1-1V4a1 1 0 0 1 1-1h26c.551 0 1 .448 1 1v20z"/></symbol><symbol id="group" viewBox="0 0 30 28"><path d="M9.266 14a5.532 5.532 0 0 0-4.141 2H3.031C1.468 16 0 15.25 0 13.516 0 12.25-.047 8 1.937 8c.328 0 1.953 1.328 4.062 1.328.719 0 1.406-.125 2.078-.359A7.624 7.624 0 0 0 7.999 10c0 1.422.453 2.828 1.266 4zM26 23.953C26 26.484 24.328 28 21.828 28H8.172C5.672 28 4 26.484 4 23.953 4 20.422 4.828 15 9.406 15c.531 0 2.469 2.172 5.594 2.172S20.063 15 20.594 15C25.172 15 26 20.422 26 23.953zM10 4c0 2.203-1.797 4-4 4S2 6.203 2 4s1.797-4 4-4 4 1.797 4 4zm11 6c0 3.313-2.688 6-6 6s-6-2.688-6-6 2.688-6 6-6 6 2.688 6 6zm9 3.516C30 15.25 28.531 16 26.969 16h-2.094a5.532 5.532 0 0 0-4.141-2A7.066 7.066 0 0 0 22 10a7.6 7.6 0 0 0-.078-1.031A6.258 6.258 0 0 0 24 9.328C26.109 9.328 27.734 8 28.062 8c1.984 0 1.937 4.25 1.937 5.516zM28 4c0 2.203-1.797 4-4 4s-4-1.797-4-4 1.797-4 4-4 4 1.797 4 4z"/></symbol><symbol id="search" viewBox="0 0 16 16"><path d="M15.56 15.56a1.502 1.502 0 0 1-2.125 0l-2.652-2.652a6.96 6.96 0 0 1-3.771 1.116 7.012 7.012 0 1 1 7.012-7.012c0 1.391-.417 2.68-1.116 3.771l2.652 2.652a1.502 1.502 0 0 1 0 2.125zM7.012 2.003a5.009 5.009 0 1 0 0 10.018 5.009 5.009 0 0 0 0-10.018z"/></symbol></svg>